<?xml version="1.0" encoding="UTF-8"?>
<!DOCTYPE svg PUBLIC "-//W3C//DTD SVG 1.1//EN" "http://www.w3.org/Graphics/SVG/1.1/DTD/svg11.dtd">
<svg version="1.1" xmlns="http://www.w3.org/2000/svg" xmlns:xlink="http://www.w3.org/1999/xlink" x="0" y="0" width="100" height="100" viewBox="0, 0, 100, 100">
  <g id="Layer_1" display="none">
    <text transform="matrix(1, 0, 0, 1, 50, 51.743)">
      <tspan x="-17.76" y="16.301" font-family="Avenir-Black" font-size="60" fill="#000000">¥</tspan>
    </text>
    <path d="M50.97,42.305 C51.191,41.51 56.74,26.651 64.585,19.981 C72.431,13.311 88.147,9.858 88.147,9.858 C88.147,9.858 87.306,14.197 87.306,14.197 C87.306,14.197 84.355,24.675 80.37,28.128 C76.386,31.581 69.109,36.075 63.878,36.514 C58.647,36.953 50.97,42.305 50.97,42.305 z" fill="#23AF1C"/>
  </g>
  <g id="Layer_2">
    <g>
      <path d="M51.373,47.975 C51.594,47.18 57.143,32.321 64.989,25.651 C72.834,18.982 88.55,15.528 88.55,15.528 C88.55,15.528 87.71,19.867 87.71,19.867 C87.71,19.867 84.758,30.345 80.773,33.798 C76.789,37.251 71.137,42.284 64.417,42.444 C58.314,42.589 51.373,47.975 51.373,47.975 z" fill="#23AF1C"/>
      <path d="M51.373,47.975 C51.594,47.18 57.143,32.321 64.989,25.651 C72.834,18.982 88.55,15.528 88.55,15.528 C88.55,15.528 87.71,19.867 87.71,19.867 C87.71,19.867 84.758,30.345 80.773,33.798 C76.789,37.251 71.137,42.284 64.417,42.444 C58.314,42.589 51.373,47.975 51.373,47.975 z" fill-opacity="0" stroke="#23AF1C" stroke-width="1" stroke-linecap="round" stroke-linejoin="round"/>
    </g>
    <g>
      <path d="M31.5,64.297 L69.5,64.297 L69.5,74.213 L31.5,74.213 z" fill="#23AF1C"/>
      <path d="M31.5,64.297 L69.5,64.297 L69.5,74.213 L31.5,74.213 z" fill-opacity="0" stroke="#23AF1C" stroke-width="1" stroke-linecap="round" stroke-linejoin="round"/>
    </g>
    <g>
      <path d="M31.5,47.975 L69.5,47.975 L69.5,57.891 L31.5,57.891 z" fill="#23AF1C"/>
      <path d="M31.5,47.975 L69.5,47.975 L69.5,57.891 L31.5,57.891 z" fill-opacity="0" stroke="#23AF1C" stroke-width="1" stroke-linecap="round" stroke-linejoin="round"/>
    </g>
    <g>
      <path d="M44.932,49.206 L56.068,49.206 L56.068,85.104 L44.932,85.104 z" fill="#23AF1C"/>
      <path d="M44.932,49.206 L56.068,49.206 L56.068,85.104 L44.932,85.104 z" fill-opacity="0" stroke="#23AF1C" stroke-width="1" stroke-linecap="round" stroke-linejoin="round"/>
    </g>
    <path d="M80.445,26.581 C78.339,26.581 76.632,24.932 76.632,22.897 C76.632,20.862 78.339,19.213 80.445,19.213 C82.551,19.213 84.258,20.862 84.258,22.897 C84.258,24.932 82.551,26.581 80.445,26.581 z" fill="#80FF80"/>
    <path d="M70.974,33.95 C68.869,33.95 67.162,32.3 67.162,30.266 C67.162,28.231 68.869,26.581 70.974,26.581 C73.08,26.581 74.787,28.231 74.787,30.266 C74.787,32.3 73.08,33.95 70.974,33.95 z" fill="#80FF80"/>
    <path d="M62.655,40.416 C60.55,40.416 58.843,38.766 58.843,36.732 C58.843,34.697 60.55,33.047 62.655,33.047 C64.761,33.047 66.468,34.697 66.468,36.732 C66.468,38.766 64.761,40.416 62.655,40.416 z" fill="#80FF80"/>
    <g>
      <path d="M51.373,49.206 C51.152,48.41 45.603,33.551 37.758,26.882 C29.912,20.212 14.196,16.758 14.196,16.758 C14.196,16.758 15.037,21.097 15.037,21.097 C15.037,21.097 17.988,31.575 21.973,35.029 C25.957,38.482 31.609,43.514 38.329,43.674 C44.432,43.819 51.373,49.206 51.373,49.206 z" fill="#23AF1C"/>
      <path d="M51.373,49.206 C51.152,48.41 45.603,33.551 37.758,26.882 C29.912,20.212 14.196,16.758 14.196,16.758 C14.196,16.758 15.037,21.097 15.037,21.097 C15.037,21.097 17.988,31.575 21.973,35.029 C25.957,38.482 31.609,43.514 38.329,43.674 C44.432,43.819 51.373,49.206 51.373,49.206 z" fill-opacity="0" stroke="#23AF1C" stroke-width="1" stroke-linecap="round" stroke-linejoin="round"/>
    </g>
    <path d="M21.301,27.812 C23.407,27.812 25.114,26.162 25.114,24.127 C25.114,22.093 23.407,20.443 21.301,20.443 C19.195,20.443 17.488,22.093 17.488,24.127 C17.488,26.162 19.195,27.812 21.301,27.812 z" fill="#80FF80"/>
    <path d="M30.772,35.18 C32.877,35.18 34.584,33.531 34.584,31.496 C34.584,29.461 32.877,27.812 30.772,27.812 C28.666,27.812 26.959,29.461 26.959,31.496 C26.959,33.531 28.666,35.18 30.772,35.18 z" fill="#80FF80"/>
    <path d="M39.091,41.646 C41.196,41.646 42.903,39.997 42.903,37.962 C42.903,35.927 41.196,34.278 39.091,34.278 C36.985,34.278 35.278,35.927 35.278,37.962 C35.278,39.997 36.985,41.646 39.091,41.646 z" fill="#80FF80"/>
  </g>
</svg>
